<?xml version="1.0" encoding="UTF-8"?>
<svg version="1.1" xmlns="http://www.w3.org/2000/svg" width="1225" height="356">
<path d="M0 0 C0 0.66 0 1.32 0 2 C0.70253906 2.2371875 1.40507813 2.474375 2.12890625 2.71875 C5.52096557 4.23248531 8.03244648 6.18474928 10.9375 8.5 C14.52412412 11.35047736 18.11767253 14.1212051 21.92578125 16.671875 C22.56459229 17.10435547 23.20340332 17.53683594 23.86157227 17.98242188 C25.09582698 18.81089641 26.3395945 19.62541655 27.59350586 20.42382812 C30.57585034 22.44482923 31.88279412 23.61763985 32.953125 27.109375 C33 30 33 30 32 33 C31.34 33 30.68 33 30 33 C30 33.66 30 34.32 30 35 C29.34 35 28.68 35 28 35 C28 35.66 28 36.32 28 37 C27.34 37 26.68 37 26 37 C26 38.65 26 40.3 26 42 C26.66 42 27.32 42 28 42 C28 42.66 28 43.32 28 44 C28.87398437 44.38671875 28.87398437 44.38671875 29.765625 44.78125 C32.1802903 46.09834017 33.81740177 47.55088384 35.75 49.5 C36.36359375 50.1084375 36.9771875 50.716875 37.609375 51.34375 C39 53 39 53 39 55 C39.66 55 40.32 55 41 55 C41 55.66 41 56.32 41 57 C41.66 57 42.32 57 43 57 C43 57.66 43 58.32 43 59 C43.66 59 44.32 59 45 59 C45 59.66 45 60.32 45 61 C45.66 61 46.32 61 47 61 C47 61.66 47 62.32 47 63 C47.53625 63.20625 48.0725 63.4125 48.625 63.625 C51 65 51 65 53.4375 68.03125 C57.02093464 71.65842507 60.35841098 71.83345017 65.3125 71.91796875 C66.8284375 71.89669922 66.8284375 71.89669922 68.375 71.875 C69.37789062 71.91496094 70.38078125 71.95492187 71.4140625 71.99609375 C75.83909931 71.99030182 78.83593269 71.87969364 82.43847656 69.15722656 C84.60892513 66.99503739 84.60892513 66.99503739 86.46337891 64.71923828 C87.22400635 63.86821533 87.22400635 63.86821533 88 63 C88.66 63 89.32 63 90 63 C90 62.34 90 61.68 90 61 C90.66 61 91.32 61 92 61 C92 60.34 92 59.68 92 59 C92.66 59 93.32 59 94 59 C94 58.34 94 57.68 94 57 C94.66 57 95.32 57 96 57 C96 56.34 96 55.68 96 55 C96.66 55 97.32 55 98 55 C98.38671875 54.12601563 98.38671875 54.12601563 98.78125 53.234375 C100.09834017 50.8197097 101.55088384 49.18259823 103.5 47.25 C104.1084375 46.63640625 104.716875 46.0228125 105.34375 45.390625 C107 44 107 44 109 44 C109 43.34 109 42.68 109 42 C109.66 42 110.32 42 111 42 C110.71006126 37.21601087 108.48299467 35.10009859 105.1796875 31.94140625 C104 30 104 30 103.85546875 27.14453125 C105.51964332 22.57231103 108.50540317 20.79722832 112.4375 18.125 C113.47874023 17.37863281 113.47874023 17.37863281 114.54101562 16.6171875 C119.67364569 13 119.67364569 13 122 13 C122 12.34 122 11.68 122 11 C123.65234375 9.73828125 123.65234375 9.73828125 125.9375 8.3125 C130.13792088 5.62026174 134.00747502 2.68274276 137.859375 -0.484375 C144.07208377 -4.8831542 151.18357995 -5.06695474 158.5625 -4.9375 C169.36631168 -1.99100591 177.22169229 7.78171795 184.86328125 15.46484375 C186.18561355 16.78515143 187.50839059 18.10501381 188.83158875 19.42445374 C191.59062245 22.17908547 194.34421034 24.93901638 197.09399414 27.70288086 C200.60860635 31.23461713 204.13656339 34.75266649 207.66869831 38.26686764 C210.39798152 40.98528422 213.12004727 43.71083779 215.84001732 46.43857002 C217.13791309 47.73845808 218.43801631 49.03614613 219.74041176 50.3315258 C221.56129161 52.14474006 223.37220239 53.96737676 225.1809082 55.79272461 C225.71343201 56.31917572 226.24595581 56.84562683 226.7946167 57.38803101 C233.90027556 64.61455276 236.29093458 71.3745556 236.40039062 81.38452148 C236.31074724 87.60221293 234.93532889 92.06678414 231 97 C230.34 97 229.68 97 229 97 C228.71125 97.763125 228.4225 98.52625 228.125 99.3125 C227 102 227 102 225 105 C224.34 105 223.68 105 223 105 C222.34 106.65 221.68 108.3 221 110 C220.34 110 219.68 110 219 110 C218.76410156 110.69609375 218.52820313 111.3921875 218.28515625 112.109375 C216.74841631 115.56587212 214.73860769 118.25080346 212.4375 121.25 C211.8197168 122.06210938 211.8197168 122.06210938 211.18945312 122.890625 C207.33605614 127.93598931 207.33605614 127.93598931 204.375 128.5 C199.40274317 127.76336936 197.18570055 124.69465863 194 121 C190.87802522 122.3089572 190.87802522 122.3089572 189 125 C189.66 125 190.32 125 191 125 C191 125.66 191 126.32 191 127 C191.66 127 192.32 127 193 127 C203.20548283 138.17868609 207.33212974 153.15534273 207.1484375 167.9609375 C206.69240233 177.29765747 203.52690518 185.41158204 200 194 C199.34 194 198.68 194 198 194 C197.814375 194.61875 197.62875 195.2375 197.4375 195.875 C195.30129676 199.03286566 192.59295723 199.05448494 189 200 C187.06345052 201.01970318 187.06345052 201.01970318 186 203 C185.6596875 204.918125 185.6596875 204.918125 185.3125 206.875 C184.52330443 210.32220626 183.57889927 211.78885451 180.625 213.75 C172.40815809 218.14921663 164.3222917 220.62148611 155 220 C155 220.66 155 221.32 155 222 C154.34 222 153.68 222 153 222 C153 222.66 153 223.32 153 224 C151.11076602 225.01241247 149.21330056 226.00947425 147.3125 227 C146.25675781 227.556875 145.20101562 228.11375 144.11328125 228.6875 C141.01696156 229.99284933 139.28275003 230.11680652 136 230 C136.01047363 231.24612061 136.02094727 232.49224121 136.03173828 233.77612305 C136.06798744 238.40727862 136.09091844 243.0384217 136.10986328 247.66967773 C136.11990963 249.67262889 136.13354909 251.67556542 136.15087891 253.6784668 C136.17518713 256.56042088 136.18649687 259.44218072 136.1953125 262.32421875 C136.20563507 263.21711105 136.21595764 264.11000336 136.22659302 265.029953 C136.22739134 269.4717257 136.10378748 272.96349427 134 277 C133.34 277 132.68 277 132 277 C131.731875 277.61875 131.46375 278.2375 131.1875 278.875 C130 281 130 281 127 283 C121.65185114 284.05209486 118.0459615 284.41328594 113 282 C110.19983156 280.019553 107.56240177 278.12480355 106 275 C102.97065509 274.34227572 102.97065509 274.34227572 100 274 C99.34 275.65 98.68 277.3 98 279 C97.34 279 96.68 279 96 279 C96 279.66 96 280.32 96 281 C89.89473038 283.50146464 85.47037354 284.69714716 79 283 C75.57215407 280.8870484 73.24004051 278.36006077 71 275 C68.63108504 274.24808022 68.63108504 274.24808022 66 275 C63.32651508 277.84151217 63.32651508 277.84151217 61 281 C57.38551333 283.40965778 54.27744404 284.08819472 50 284 C46.88973472 283.24891427 43.9585737 282.21219339 41 281 C41 280.34 41 279.68 41 279 C40.34 279 39.68 279 39 279 C38.34 277.35 37.68 275.7 37 274 C32.65583449 274.20205421 31.31550057 274.65515054 28.3125 277.9375 C27.549375 278.948125 26.78625 279.95875 26 281 C22.39910019 283.40059987 19.24200698 283.91919987 15 284 C9.88989721 282.97797944 6.70489091 280.62068885 3 277 C1.28629687 273.52677474 0.75741594 270.77060119 0.8046875 266.91796875 C0.81113281 265.98662109 0.81757812 265.05527344 0.82421875 264.09570312 C0.84935547 262.65614258 0.84935547 262.65614258 0.875 261.1875 C0.88402344 260.20845703 0.89304687 259.22941406 0.90234375 258.22070312 C0.92582818 255.81354939 0.9586716 253.40690257 1 251 C-0.34578125 250.60361328 -0.34578125 250.60361328 -1.71875 250.19921875 C-11.51178027 246.62009935 -18.70132287 238.12392718 -23.17578125 228.98046875 C-24 227 -24 227 -24.875 223.3125 C-27.98520574 218.46423811 -32.03699895 217.9349858 -37.390625 216.2578125 C-42.09663161 214.6178405 -46.28381411 212.35243225 -50 209 C-50 208.34 -50 207.68 -50 207 C-50.928125 206.62875 -50.928125 206.62875 -51.875 206.25 C-54.35068687 204.79371361 -54.95125002 203.62187494 -56 201 C-56.66 201 -57.32 201 -58 201 C-60.29648649 198.4385343 -61 197.52032428 -61 194 C-61.66 194 -62.32 194 -63 194 C-63.99152726 191.67127542 -64.96816007 189.3379503 -65.9375 187 C-66.21529297 186.35160156 -66.49308594 185.70320312 -66.77929688 185.03515625 C-72.32586826 171.53627167 -70.95643606 156.23427968 -65.75 142.875 C-63.46952558 137.62586065 -60.64246911 133.37892461 -57 129 C-56.48695312 128.2678125 -55.97390625 127.535625 -55.4453125 126.78125 C-54.96835937 126.1934375 -54.49140625 125.605625 -54 125 C-53.34 125 -52.68 125 -52 125 C-53.65 123.35 -55.3 121.7 -57 120 C-57 120.66 -57 121.32 -57 122 C-57.66 122 -58.32 122 -59 122 C-59 122.66 -59 123.32 -59 124 C-59.66 124 -60.32 124 -61 124 C-61 124.66 -61 125.32 -61 126 C-64.52572807 128.35048538 -65.85013645 128.66397817 -70 128 C-72.15300668 126.17218703 -73.38192172 124.37952689 -75 122 C-75 121.34 -75 120.68 -75 120 C-75.66 120 -76.32 120 -77 120 C-78.2890625 118.3203125 -78.2890625 118.3203125 -79.625 116.125 C-80.07101563 115.40570313 -80.51703125 114.68640625 -80.9765625 113.9453125 C-82 112 -82 112 -82 110 C-82.66 110 -83.32 110 -84 110 C-87.14530188 106.03636295 -89.95817952 101.8532159 -92.81396484 97.67822266 C-94.0452433 95.88744714 -94.0452433 95.88744714 -95.76953125 93.88671875 C-100.51855021 87.93333764 -99.60512575 80.35436543 -99.41992188 73.11474609 C-98.42480284 68.10328037 -95.65920049 64.27917146 -92.25 60.6015625 C-91.45335938 59.74208008 -90.65671875 58.88259766 -89.8359375 57.99707031 C-88.89128883 56.99741915 -87.94592157 55.99844676 -87 55 C-86.45762695 54.42278198 -85.91525391 53.84556396 -85.35644531 53.25085449 C-81.61066248 49.26978772 -77.82213969 45.33409917 -73.99804688 41.42822266 C-72.65703885 40.05018288 -71.3250723 38.66329105 -70.00195312 37.26806641 C-68.06429992 35.22705264 -66.09871404 33.21702453 -64.125 31.2109375 C-63.54347168 30.58609467 -62.96194336 29.96125183 -62.36279297 29.31747437 C-58.99636609 25.96607193 -56.89461388 24.62659246 -52.0546875 24.61181641 C-50.70051791 24.7102484 -49.34691034 24.82883732 -48 25 C-48 24.34 -48 23.68 -48 23 C-47.34 23 -46.68 23 -46 23 C-46 22.34 -46 21.68 -46 21 C-45.34 21 -44.68 21 -44 21 C-44.226875 19.741875 -44.45375 18.48375 -44.6875 17.1875 C-44.7077115 12.92287386 -43.37875518 10.77051441 -40.47094727 7.68432617 C-28.20308578 -4.27811138 -15.76526187 -9.05042811 0 0 Z M-31.3046875 147.21484375 C-36.35599666 152.75620529 -38.57741276 158.05585241 -39.375 165.5 C-38.89907024 169.94201107 -37.58442714 173.84087875 -36 178 C-35.34 178 -34.68 178 -34 178 C-33.7525 178.5775 -33.505 179.155 -33.25 179.75 C-30.60160925 184.51710335 -27.01331395 186.97334117 -22 189 C-18.58841744 187.86280581 -17.88145399 186.95657056 -16 184 C-16 183.34 -16 182.68 -16 182 C-15.34 182 -14.68 182 -14 182 C-14.59316103 175.49804256 -16.10703832 169.63742173 -18.125 163.4375 C-18.39570312 162.53064453 -18.66640625 161.62378906 -18.9453125 160.68945312 C-20.99719726 154.37349535 -23.72422622 150.11517258 -29 146 C-30.17514228 145.8864235 -30.17514228 145.8864235 -31.3046875 147.21484375 Z M162.6875 148.75 C158.17646248 153.29824196 156.19534281 158.76839667 155 165 C155.38526895 167.92804399 155.89313781 168.87102839 157.8125 171.1875 C160.22375158 174.2876806 161.58034588 177.30612679 163.0703125 180.9140625 C164.03349937 183.23218046 164.03349937 183.23218046 166 186 C166 185.34 166 184.68 166 184 C167.485 183.505 167.485 183.505 169 183 C173.85188058 178.14811942 175.65872209 172.1852605 176.375 165.5 C175.5197347 157.51752387 172.93123088 151.52279283 167 146 C165.14385626 146 164.00616906 147.56404496 162.6875 148.75 Z " fill="#030303" transform="translate(99,28)"/>
<path d="M0 0 C3.56225675 2.79593033 6.82178788 5.77807966 10 9 C10.60457031 9.50015625 11.20914063 10.0003125 11.83203125 10.515625 C13 12 13 12 12.9609375 13.89453125 C11.66051432 16.74383244 9.85884491 18.50064535 7.625 20.6875 C6.83351563 21.47511719 6.04203125 22.26273438 5.2265625 23.07421875 C3 25 3 25 0 26 C-0.59425781 25.34773438 -1.18851562 24.69546875 -1.80078125 24.0234375 C-11.65447236 13.63338684 -21.40586772 8.12942851 -35.6875 7.625 C-47.70816206 7.83092141 -58.04111469 11.60069516 -66.89453125 19.7421875 C-75.7097045 28.99907968 -80.40202074 41.06646479 -80.375 53.75 C-80.37338867 54.53987305 -80.37177734 55.32974609 -80.37011719 56.14355469 C-80.13490589 67.4198612 -76.04048588 76.22938774 -68 84.125 C-58.69238985 92.01229302 -47.71996403 93.0963519 -35.9609375 92.22753906 C-28.06964977 91.31186673 -20.54782001 87.6991242 -15 82 C-11.31731428 76.85175568 -9.76004671 72.16016348 -8 66 C-17.57 66 -27.14 66 -37 66 C-36.34 60.39 -35.68 54.78 -35 49 C-18.83 49 -2.66 49 14 49 C14 66.67835823 11.36602819 81.91541968 -1.0390625 95.16015625 C-14.96048778 108.22189192 -30.90456079 110.51716278 -49.20703125 110.2734375 C-62.84435206 109.82833509 -75.24335276 104.60858411 -85.3125 95.3125 C-96.99613014 82.7282567 -100.40033602 67.74097782 -100.203125 51.02734375 C-99.56924967 34.97561055 -93.73496552 19.73369123 -82.41015625 8.17578125 C-59.45991354 -12.54267124 -26.6307144 -16.56881158 0 0 Z " fill="#000000" transform="translate(511,214)"/>
<path d="M0 0 C3.56225675 2.79593033 6.82178788 5.77807966 10 9 C10.60457031 9.50015625 11.20914063 10.0003125 11.83203125 10.515625 C13 12 13 12 12.9609375 13.89453125 C11.66051432 16.74383244 9.85884491 18.50064535 7.625 20.6875 C6.83351563 21.47511719 6.04203125 22.26273438 5.2265625 23.07421875 C3 25 3 25 0 26 C-0.59425781 25.34773438 -1.18851562 24.69546875 -1.80078125 24.0234375 C-11.65447236 13.63338684 -21.40586772 8.12942851 -35.6875 7.625 C-47.70816206 7.83092141 -58.04111469 11.60069516 -66.89453125 19.7421875 C-75.7097045 28.99907968 -80.40202074 41.06646479 -80.375 53.75 C-80.37338867 54.53987305 -80.37177734 55.32974609 -80.37011719 56.14355469 C-80.13490589 67.4198612 -76.04048588 76.22938774 -68 84.125 C-58.69238985 92.01229302 -47.71996403 93.0963519 -35.9609375 92.22753906 C-28.06964977 91.31186673 -20.54782001 87.6991242 -15 82 C-11.31731428 76.85175568 -9.76004671 72.16016348 -8 66 C-17.57 66 -27.14 66 -37 66 C-36.34 60.39 -35.68 54.78 -35 49 C-18.83 49 -2.66 49 14 49 C14 66.67835823 11.36602819 81.91541968 -1.0390625 95.16015625 C-14.96048778 108.22189192 -30.90456079 110.51716278 -49.20703125 110.2734375 C-62.84435206 109.82833509 -75.24335276 104.60858411 -85.3125 95.3125 C-96.99613014 82.7282567 -100.40033602 67.74097782 -100.203125 51.02734375 C-99.56924967 34.97561055 -93.73496552 19.73369123 -82.41015625 8.17578125 C-59.45991354 -12.54267124 -26.6307144 -16.56881158 0 0 Z " fill="#000000" transform="translate(511,23)"/>
<path d="M0 0 C0.33 -2.31 0.66 -4.62 1 -7 C6.94 -7 12.88 -7 19 -7 C18.60954191 -3.9244579 18.21892018 -0.84893678 17.828125 2.2265625 C17.70579498 3.18929077 17.58346497 4.15201904 17.45742798 5.1439209 C16.36806388 13.71028014 15.26917133 22.27540428 14.16885376 30.84036255 C13.46951375 36.29487991 12.77980319 41.75028183 12.11315918 47.20889282 C11.86022389 49.27306552 11.60250757 51.33657518 11.34277344 53.39990234 C11.04267452 55.78972977 10.75091404 58.18062764 10.46972656 60.57275391 C8.74776742 74.04657777 5.33301839 87.94789061 -5.8515625 96.71484375 C-16.04659423 102.81332637 -28.47757223 103.46356091 -39.95703125 101.4921875 C-48.5325333 99.20011783 -56.21767922 94.62624526 -61 87 C-65 78.01863354 -65 78.01863354 -65 74 C-59.23918159 72.7017874 -53.91260345 71.74293028 -48 72 C-47.5875 73.2375 -47.175 74.475 -46.75 75.75 C-45.3707811 79.34740967 -44.23297739 81.72817805 -41 84 C-33.37495006 86.54168331 -26.32936184 87.18150538 -18.8203125 83.95703125 C-14.85167553 81.8705161 -12.63181522 79.66870552 -11.03125 75.44140625 C-9.61049958 70.59375319 -8.58753506 66.08706763 -9 61 C-9.76183594 61.50660156 -9.76183594 61.50660156 -10.5390625 62.0234375 C-11.22742188 62.46945312 -11.91578125 62.91546875 -12.625 63.375 C-13.29789063 63.81585938 -13.97078125 64.25671875 -14.6640625 64.7109375 C-22.39666514 68.9780928 -31.3713412 69.34051955 -39.88671875 67.3125 C-47.4727976 64.52435463 -52.89026097 60.48975917 -56.8125 53.375 C-62.30367343 41.23280133 -62.29687131 26.91969618 -57.99609375 14.3671875 C-54.21582442 5.38348863 -48.67088255 -2.50052063 -39.85546875 -7.125 C-24.93810105 -13.05771985 -12.62880181 -8.3962606 0 0 Z M-35.76171875 9.8359375 C-42.70430015 18.61082246 -43.11407164 28.21611341 -42 39 C-40.5827668 44.38548616 -37.71113542 48.01245071 -33 51 C-27.75867427 53.75859249 -22.60120084 53.67927685 -17 52 C-11.28082114 49.61238164 -7.55495897 45.23122681 -4.8984375 39.7109375 C-1.93249684 31.20118253 -1.33773535 21.73283128 -5.125 13.4375 C-8.11334064 8.20790388 -11.26793387 5.91068871 -17 4 C-24.37233052 3.11299376 -30.50519768 4.35796654 -35.76171875 9.8359375 Z " fill="#000000" transform="translate(837,254)"/>
<path d="M0 0 C1.12792969 -0.01933594 2.25585938 -0.03867188 3.41796875 -0.05859375 C11.67192017 -0.0097538 11.67192017 -0.0097538 15.51171875 2.93359375 C16.16785156 3.82175781 16.82398438 4.70992188 17.5 5.625 C19.61924973 7.47055954 21.76731529 9.27483216 23.92578125 11.07421875 C24.44527344 11.58597656 24.96476562 12.09773438 25.5 12.625 C25.5 13.285 25.5 13.945 25.5 14.625 C26.49 14.955 27.48 15.285 28.5 15.625 C30.078125 17.26171875 30.078125 17.26171875 31.75 19.3125 C34.6495358 22.75608516 37.68137449 25.61825729 41.21484375 28.3984375 C41.85099609 29.00558594 41.85099609 29.00558594 42.5 29.625 C42.5 30.285 42.5 30.945 42.5 31.625 C43.985 32.12 43.985 32.12 45.5 32.625 C47.078125 34.26171875 47.078125 34.26171875 48.75 36.3125 C51.6495358 39.75608516 54.68137449 42.61825729 58.21484375 45.3984375 C58.63894531 45.80320313 59.06304687 46.20796875 59.5 46.625 C59.5 47.285 59.5 47.945 59.5 48.625 C60.49 48.955 61.48 49.285 62.5 49.625 C66.79272582 53.53895589 70.55404061 57.98602171 74.4140625 62.3203125 C76.36764704 64.57966724 76.36764704 64.57966724 78.2890625 66.14453125 C79.5 67.625 79.5 67.625 79.609375 69.81640625 C79.43148437 70.99009766 79.43148437 70.99009766 79.25 72.1875 C79.08757812 73.36505859 79.08757812 73.36505859 78.921875 74.56640625 C78.5 76.625 78.5 76.625 77.5 78.625 C73.42834719 78.09112944 71.33198484 76.98983575 68.25 74.3125 C63.80797977 70.61957785 59.23204529 67.24167531 54.5 63.9375 C48.40271129 59.6716413 42.33926755 55.36501054 36.3125 51 C35.19041138 50.18970337 35.19041138 50.18970337 34.0456543 49.36303711 C30.52100202 46.8171338 27.00333793 44.26266274 23.5 41.6875 C22.27087808 40.79160528 21.04171391 39.89576851 19.8125 39 C18.75675781 38.22398437 17.70101562 37.44796875 16.61328125 36.6484375 C8.98177845 31.68843944 2.4468748 30.52532446 -6.5 31.625 C-22.09233083 36.27573845 -34.76250286 53.82290187 -45.79931641 65.02026367 C-48.00774937 67.25869353 -50.22219625 69.49102911 -52.4375 71.72265625 C-53.1176416 72.41625748 -53.7977832 73.1098587 -54.49853516 73.82447815 C-55.12679199 74.45611374 -55.75504883 75.08774933 -56.40234375 75.73852539 C-56.95398193 76.297621 -57.50562012 76.85671661 -58.07397461 77.43275452 C-59.5 78.625 -59.5 78.625 -61.5 78.625 C-61.5 79.285 -61.5 79.945 -61.5 80.625 C-62.16 80.625 -62.82 80.625 -63.5 80.625 C-63.5 81.285 -63.5 81.945 -63.5 82.625 C-64.16 82.625 -64.82 82.625 -65.5 82.625 C-65.5 83.285 -65.5 83.945 -65.5 84.625 C-66.16 84.625 -66.82 84.625 -67.5 84.625 C-67.5 85.285 -67.5 85.945 -67.5 86.625 C-69.375 88.75 -69.375 88.75 -71.5 90.625 C-72.16 90.625 -72.82 90.625 -73.5 90.625 C-74.85109448 86.63074495 -76.17866875 82.62918634 -77.5 78.625 C-77.74621094 77.91730469 -77.99242188 77.20960938 -78.24609375 76.48046875 C-79.56236944 72.45901957 -79.99787581 69.6193355 -78.5 65.625 C-76.67524297 63.75595275 -74.73867823 62.14040318 -72.703125 60.50390625 C-69.75683718 57.99120334 -67.38776362 55.1223289 -64.9453125 52.12890625 C-64.46835938 51.63261719 -63.99140625 51.13632813 -63.5 50.625 C-62.84 50.625 -62.18 50.625 -61.5 50.625 C-61.24605469 50.03203125 -60.99210937 49.4390625 -60.73046875 48.828125 C-59.36373626 46.38102301 -57.98257018 45.13152046 -55.8125 43.375 C-52.09579975 40.25405498 -49.00975926 36.88463519 -45.9453125 33.12890625 C-45.46835938 32.63261719 -44.99140625 32.13632813 -44.5 31.625 C-43.84 31.625 -43.18 31.625 -42.5 31.625 C-42.5 30.965 -42.5 30.305 -42.5 29.625 C-40.99609375 28.1796875 -40.99609375 28.1796875 -38.9375 26.5 C-35.18243387 23.33187138 -32.04734343 19.93069764 -28.9453125 16.12890625 C-28.22988281 15.38447266 -28.22988281 15.38447266 -27.5 14.625 C-26.84 14.625 -26.18 14.625 -25.5 14.625 C-25.5 13.965 -25.5 13.305 -25.5 12.625 C-23.92578125 11.07421875 -23.92578125 11.07421875 -21.8125 9.3125 C-19.36515947 7.26152724 -17.42124436 5.51839365 -15.51171875 2.93359375 C-10.72748472 -0.73369848 -5.85605015 -0.10038943 0 0 Z " fill="#DFDCDF" transform="translate(167.5,110.375)"/>
<path d="M0 0 C6.24675109 5.70413076 9.59697486 13.13124869 10.171875 21.55712891 C10.79834005 36.6016872 9.49694402 50.11453077 0.03125 62.49609375 C-7.09584987 70.17478179 -14.30921648 73.05212485 -24.71875 73.74609375 C-33.82840149 73.57257658 -40.78527559 69.76985104 -47.96875 64.49609375 C-49.45375 63.50609375 -49.45375 63.50609375 -50.96875 62.49609375 C-51.00613281 63.38425781 -51.04351563 64.27242188 -51.08203125 65.1875 C-51.52339662 73.76383502 -52.35259274 82.23010282 -53.46875 90.74609375 C-53.59934814 91.74584229 -53.72994629 92.74559082 -53.86450195 93.77563477 C-54.40275141 97.77040704 -54.9892695 101.57817176 -55.96875 105.49609375 C-61.90875 105.49609375 -67.84875 105.49609375 -73.96875 105.49609375 C-72.58646819 94.81068005 -71.2040813 84.12527995 -69.82152081 73.43990231 C-69.17920968 68.47564935 -68.53694058 63.51139097 -67.89477539 58.54711914 C-67.77027952 57.58474524 -67.64578365 56.62237133 -67.51751518 55.63083458 C-67.26827142 53.70408104 -67.01905075 51.77732452 -66.76985359 49.85056496 C-66.16191742 45.15077757 -65.55333109 40.4510761 -64.94332886 35.7515564 C-63.9443863 28.05330841 -62.94740927 20.35498856 -61.97900391 12.65283203 C-61.83952835 11.55282364 -61.7000528 10.45281525 -61.55635071 9.31947327 C-61.31191734 7.38814486 -61.07074164 5.4563998 -60.83366394 3.52415466 C-60.08091124 -2.39174501 -60.08091124 -2.39174501 -58.96875 -3.50390625 C-56.27220146 -3.57710246 -53.60183542 -3.59633162 -50.90625 -3.56640625 C-50.14763672 -3.56189453 -49.38902344 -3.55738281 -48.60742188 -3.55273438 C-46.72783129 -3.54091305 -44.84828101 -3.52297703 -42.96875 -3.50390625 C-42.63875 -1.85390625 -42.30875 -0.20390625 -41.96875 1.49609375 C-41.35128906 1.08617187 -40.73382812 0.67625 -40.09765625 0.25390625 C-27.52052937 -7.74797965 -12.52604577 -9.56850719 0 0 Z M-41.28125 16.62109375 C-47.55390133 24.70546453 -47.84432367 34.63689435 -46.96875 44.49609375 C-45.82667569 49.64870807 -43.06636513 53.21800164 -38.96875 56.49609375 C-33.3361144 59.67600619 -28.19885067 60.1125523 -21.96875 58.49609375 C-16.62474552 56.61123445 -13.70318462 53.51938115 -10.96875 48.6171875 C-6.94418362 40.08070491 -6.54931844 29.62836834 -9.03125 20.55859375 C-10.79384265 15.97922624 -13.87405938 13.10180597 -17.96875 10.49609375 C-26.89387334 7.52105264 -34.84442914 9.91475083 -41.28125 16.62109375 Z " fill="#000000" transform="translate(915.96875,59.50390625)"/>
<path d="M0 0 C0.928125 0.8353125 0.928125 0.8353125 1.875 1.6875 C2.535 -0.6225 3.195 -2.9325 3.875 -5.3125 C9.815 -5.3125 15.755 -5.3125 21.875 -5.3125 C20.488826 9.43388373 18.73858255 24.10346344 16.78833008 38.78540039 C16.30454567 42.43500641 15.82883028 46.0856104 15.35351562 49.73632812 C15.04735386 52.05735488 14.74073132 54.37832092 14.43359375 56.69921875 C14.29191269 57.79062668 14.15023163 58.88203461 14.0042572 60.0065155 C13.87064285 61.00298599 13.7370285 61.99945648 13.59936523 63.02612305 C13.48326401 63.90511765 13.36716278 64.78411224 13.24754333 65.68974304 C12.875 67.6875 12.875 67.6875 11.875 68.6875 C9.01232433 68.76075168 6.174281 68.77988205 3.3125 68.75 C2.50619141 68.74548828 1.69988281 68.74097656 0.86914062 68.73632812 C-1.12893756 68.72450518 -3.12697783 68.70656914 -5.125 68.6875 C-5.455 67.3675 -5.785 66.0475 -6.125 64.6875 C-6.72828125 65.10902344 -7.3315625 65.53054688 -7.953125 65.96484375 C-9.15195312 66.78662109 -9.15195312 66.78662109 -10.375 67.625 C-11.16390625 68.17027344 -11.9528125 68.71554687 -12.765625 69.27734375 C-19.57158494 73.34514431 -30.34967605 72.85140208 -37.9296875 71.00390625 C-45.34489652 67.91209764 -50.88259228 63.19507482 -54.30078125 55.91015625 C-59.30657105 42.41113067 -59.06783705 25.86109544 -53.125 12.6875 C-48.15992205 2.4425553 -41.85503193 -3.49737754 -31.125 -7.3125 C-19.8021936 -10.58353296 -9.09818311 -6.7326555 0 0 Z M-30.875 10.3125 C-36.6269332 15.68359744 -38.84839885 22.23528536 -39.328125 29.95703125 C-39.44389612 38.7073982 -39.40580705 45.48484329 -33.125 52.125 C-28.37604746 56.18139696 -24.2381872 56.09632472 -18.203125 56.0234375 C-12.6583642 55.41829863 -9.13155514 53.0943398 -5.59765625 48.85546875 C0.23251403 40.28765329 0.81880084 30.79796646 -0.125 20.6875 C-1.73623868 14.8192955 -4.99338511 10.97947937 -10.125 7.6875 C-17.73293822 4.73748314 -24.3909645 5.2632298 -30.875 10.3125 Z " fill="#000000" transform="translate(594.125,252.3125)"/>
<path d="M0 0 C0.928125 0.8353125 0.928125 0.8353125 1.875 1.6875 C2.535 -0.6225 3.195 -2.9325 3.875 -5.3125 C9.815 -5.3125 15.755 -5.3125 21.875 -5.3125 C20.488826 9.43388373 18.73858255 24.10346344 16.78833008 38.78540039 C16.30454567 42.43500641 15.82883028 46.0856104 15.35351562 49.73632812 C15.04735386 52.05735488 14.74073132 54.37832092 14.43359375 56.69921875 C14.29191269 57.79062668 14.15023163 58.88203461 14.0042572 60.0065155 C13.87064285 61.00298599 13.7370285 61.99945648 13.59936523 63.02612305 C13.48326401 63.90511765 13.36716278 64.78411224 13.24754333 65.68974304 C12.875 67.6875 12.875 67.6875 11.875 68.6875 C9.01232433 68.76075168 6.174281 68.77988205 3.3125 68.75 C2.50619141 68.74548828 1.69988281 68.74097656 0.86914062 68.73632812 C-1.12893756 68.72450518 -3.12697783 68.70656914 -5.125 68.6875 C-5.455 67.3675 -5.785 66.0475 -6.125 64.6875 C-6.72828125 65.10902344 -7.3315625 65.53054687 -7.953125 65.96484375 C-9.15195312 66.78662109 -9.15195312 66.78662109 -10.375 67.625 C-11.16390625 68.17027344 -11.9528125 68.71554688 -12.765625 69.27734375 C-19.57158494 73.34514431 -30.34967605 72.85140208 -37.9296875 71.00390625 C-45.34489652 67.91209764 -50.88259228 63.19507482 -54.30078125 55.91015625 C-59.30657105 42.41113067 -59.06783705 25.86109544 -53.125 12.6875 C-48.15992205 2.4425553 -41.85503193 -3.49737754 -31.125 -7.3125 C-19.8021936 -10.58353296 -9.09818311 -6.7326555 0 0 Z M-30.875 10.3125 C-36.6269332 15.68359744 -38.84839885 22.23528536 -39.328125 29.95703125 C-39.44389612 38.7073982 -39.40580705 45.48484329 -33.125 52.125 C-28.37604746 56.18139696 -24.2381872 56.09632472 -18.203125 56.0234375 C-12.6583642 55.41829863 -9.13155514 53.0943398 -5.59765625 48.85546875 C0.23251403 40.28765329 0.81880084 30.79796646 -0.125 20.6875 C-1.73623868 14.8192955 -4.99338511 10.97947937 -10.125 7.6875 C-17.73293822 4.73748314 -24.3909645 5.2632298 -30.875 10.3125 Z " fill="#000000" transform="translate(594.125,61.3125)"/>
<path d="M0 0 C1.37505666 1.2902615 2.72352563 2.61213518 4 4 C4.66 1.36 5.32 -1.28 6 -4 C11.61 -4 17.22 -4 23 -4 C23 1.31169522 22.88809008 5.80823831 22.17382812 10.96679688 C22.08604599 11.61170074 21.99826385 12.25660461 21.90782166 12.92105103 C21.62071142 15.02101888 21.32606206 17.11985083 21.03125 19.21875 C20.82899794 20.68698776 20.62722334 22.15529137 20.42590332 23.62365723 C19.89800147 27.46457677 19.36366996 31.30457449 18.82794189 35.14440918 C18.28110759 39.07229364 17.7404315 43.00102524 17.19921875 46.9296875 C16.13879829 54.62063071 15.07100723 62.31052255 14 70 C8.06 70 2.12 70 -4 70 C-4 68.35 -4 66.7 -4 65 C-4.845625 65.763125 -5.69125 66.52625 -6.5625 67.3125 C-13.18655769 73.29030816 -20.5101501 73.61470209 -29.04296875 73.3515625 C-36.95127305 72.64894909 -43.52465867 69.85734189 -49 64 C-56.85075817 51.53500792 -57.7787793 37.46271911 -54.8125 23.1875 C-51.86931032 12.10645867 -46.77173968 2.63487606 -36.62890625 -3.4140625 C-24.01220156 -9.3288077 -11.57261114 -7.44202554 0 0 Z M-29.8125 11.6875 C-35.88315988 18.10505473 -37.63219338 26.36563664 -38.3125 34.9375 C-38.06136034 42.80131067 -35.62942795 49.50787517 -30 55 C-25.11115485 58.09946392 -19.57540173 57.46461681 -14 57 C-7.92959811 55.08894755 -4.07543775 50.66017123 -0.9921875 45.22265625 C2.66641026 36.82208955 3.15411689 26.56117442 0 18 C-2.62846564 13.35637737 -5.17448886 10.04431673 -10.26171875 8.1640625 C-17.96539775 6.45213383 -23.09909395 7.65945637 -29.8125 11.6875 Z " fill="#000000" transform="translate(741,251)"/>
<path d="M0 0 C6.97756001 6.50591579 9.74283103 13.17355577 10.375 22.625 C10.46136719 23.800625 10.54773438 24.97625 10.63671875 26.1875 C10.6875 29.625 10.6875 29.625 9.6875 35.625 C-8.7925 35.625 -27.2725 35.625 -46.3125 35.625 C-43.79635397 46.12971409 -43.79635397 46.12971409 -37.3125 53.625 C-32.16648778 56.43191576 -26.89630552 55.73629571 -21.3125 54.625 C-16.71146593 52.80194877 -11.6052168 50.2104336 -9.3125 45.625 C-5.47586928 46.97429464 -2.66077431 48.70251025 0.5 51.25 C1.68529297 52.19746094 1.68529297 52.19746094 2.89453125 53.1640625 C3.48621094 53.64617187 4.07789063 54.12828125 4.6875 54.625 C-0.09338647 62.65688927 -7.06435983 68.54484193 -16.16870117 71.15771484 C-26.19453362 73.34305174 -38.40518072 72.81793108 -47.3125 67.625 C-48.8903125 66.75875 -48.8903125 66.75875 -50.5 65.875 C-58.03013439 59.85089248 -62.78421727 53.25049998 -64.3125 43.625 C-64.80237096 34.32687245 -65.13347701 25.30341336 -61.3125 16.625 C-60.98378906 15.87089844 -60.65507813 15.11679687 -60.31640625 14.33984375 C-55.47517684 4.57362664 -47.56275248 -2.67996178 -37.3125 -6.375 C-24.10369411 -10.29236568 -10.69867955 -8.88934404 0 0 Z M-41.25 14.5625 C-43.66653362 17.72645875 -43.66653362 17.72645875 -44.3125 22.625 C-32.1025 22.625 -19.8925 22.625 -7.3125 22.625 C-9.82385039 14.10789485 -9.82385039 14.10789485 -15.3125 8.625 C-24.74268125 5.48160625 -34.51319216 7.15583911 -41.25 14.5625 Z " fill="#000000" transform="translate(931.3125,252.375)"/>
<path d="M0 0 C7.47110797 4.38927593 12.01622443 10.31107592 15.375 18.25 C17.17332351 29.03994108 16.64145668 38.3158746 10.3046875 47.44140625 C5.01247751 53.94418249 -1.66845312 58.42418308 -10 60 C-20.1617447 60.83992741 -28.53638183 59.68764977 -36.75 53.375 C-44.33073641 46.27814039 -47.86804133 37.2958584 -48.375 27.125 C-48.08841375 16.13357424 -42.22820923 9.08690628 -34.6875 1.75 C-23.57639892 -5.48513558 -11.74538405 -6.36869642 0 0 Z " fill="#7E7E7E" transform="translate(131,211)"/>
<path d="M0 0 C5.61 0 11.22 0 17 0 C16.55670135 9.30927168 15.73112337 18.39574198 14.4375 27.625 C11.45641322 43.46514454 11.45641322 43.46514454 16 58 C21.54836419 61.09428003 26.09286017 61.85572332 32.30078125 60.49609375 C37.52662818 58.99932908 39.802371 57.54677526 43 53 C47.1501699 42.05573291 48.27672787 30.1645956 49.6875 18.625 C50.00345403 16.0964052 50.32234095 13.56824552 50.64595032 11.0406189 C50.8445504 9.4842937 51.03840789 7.92735421 51.22697449 6.36978149 C51.88871366 1.11128634 51.88871366 1.11128634 53 0 C55.86267567 -0.07325168 58.700719 -0.09238205 61.5625 -0.0625 C62.36880859 -0.05798828 63.17511719 -0.05347656 64.00585938 -0.04882812 C66.00393756 -0.03700518 68.00197783 -0.01906914 70 0 C69.41557245 9.47540796 68.34026951 18.82503357 67.00805664 28.22021484 C66.68809813 30.49574615 66.38395466 32.773054 66.08007812 35.05078125 C62.49017837 61.0529034 62.49017837 61.0529034 54 69 C45.15771571 75.53305963 36.94754578 77.34921148 26.125 77.3125 C25.18269531 77.32861328 24.24039063 77.34472656 23.26953125 77.36132812 C14.09779609 77.36767096 6.48469664 75.5865413 -0.26953125 69.12890625 C-7.11528971 60.70692349 -6.72300204 50.01375804 -5.79547119 39.73300171 C-5.17190674 33.93082511 -4.36873853 28.15405589 -3.5625 22.375 C-3.32928473 20.64203367 -3.09685823 18.908961 -2.86523438 17.17578125 C-2.64134007 15.52073644 -2.41675653 13.86578469 -2.19140625 12.2109375 C-2.03509483 11.06097794 -2.03509483 11.06097794 -1.87562561 9.88778687 C-1.40472456 6.52038806 -0.82605188 3.30420753 0 0 Z " fill="#000000" transform="translate(637,56)"/>
<path d="M0 0 C5.94 0 11.88 0 18 0 C19.37602911 4.15648569 20.7472338 8.31404041 22.10766602 12.47558594 C22.56961332 13.8843092 23.03404324 15.29222133 23.5012207 16.69921875 C26.60632578 26.05798539 29.15134071 35.29858656 31 45 C31.36125977 44.37770508 31.72251953 43.75541016 32.09472656 43.11425781 C38.61111698 31.89684538 45.14521398 20.69107537 51.8125 9.5625 C52.32135742 8.71139648 52.83021484 7.86029297 53.35449219 6.98339844 C53.82145508 6.20641602 54.28841797 5.42943359 54.76953125 4.62890625 C55.17792236 3.94900635 55.58631348 3.26910645 56.00708008 2.56860352 C57 1 57 1 58 0 C59.41570123 -0.08651611 60.835595 -0.10704904 62.25390625 -0.09765625 C63.53491211 -0.09282227 63.53491211 -0.09282227 64.84179688 -0.08789062 C66.18854492 -0.07532227 66.18854492 -0.07532227 67.5625 -0.0625 C68.46419922 -0.05798828 69.36589844 -0.05347656 70.29492188 -0.04882812 C72.53001314 -0.03700225 74.76497437 -0.0205222 77 0 C75.67251074 3.57083088 74.08489016 6.67665564 72.05078125 9.89453125 C71.4578125 10.83748047 70.86484375 11.78042969 70.25390625 12.75195312 C69.61324219 13.76193359 68.97257813 14.77191406 68.3125 15.8125 C66.9439033 17.98560963 65.57541674 20.15878862 64.20703125 22.33203125 C63.50658691 23.44143066 62.80614258 24.55083008 62.08447266 25.69384766 C58.87390843 30.78607778 55.68747291 35.89329736 52.5 41 C51.25402329 42.99356274 50.00792907 44.98705204 48.76171875 46.98046875 C46.22142549 51.04480555 43.68251612 55.11000261 41.14453125 59.17578125 C30.93753728 75.5232945 30.93753728 75.5232945 26.671875 82.2734375 C26.15125488 83.0989209 25.63063477 83.9244043 25.09423828 84.77490234 C24.08848518 86.35903561 23.07407957 87.93771504 22.05029297 89.51025391 C19.82371747 92.95255313 17.79110514 96.30151012 16.1484375 100.0625 C14.50824312 103.64543529 13.0658297 106.39564392 10 109 C3.75809312 110.516309 -2.69503431 109.74363003 -9 109 C-5.84223345 102.71330494 -2.2766189 96.77247143 1.56933594 90.88818359 C2.70133888 89.15334469 3.82027816 87.40991939 4.92675781 85.65869141 C7.53327812 81.56779777 10.10448407 77.75849572 13.41796875 74.20703125 C16.73429569 70.44114632 19.31663335 67.08284412 20 62 C18.84339581 52.94016691 15.06656736 44.38881299 11.61621094 35.99511719 C9.4729655 30.75995568 7.58562901 25.43793154 5.69824219 20.10644531 C4.83083082 17.66040927 3.94914526 15.21937795 3.05175781 12.78417969 C2.65053711 11.68750977 2.24931641 10.59083984 1.8359375 9.4609375 C1.48063965 8.49978027 1.1253418 7.53862305 0.75927734 6.54833984 C0 4 0 4 0 0 Z " fill="#000000" transform="translate(936,56)"/>
<path d="M0 0 C4.98365881 2.30832259 8.96621075 5.57086164 12.953125 9.30859375 C11.59993163 12.32807274 10.09014523 14.41960252 7.75143433 16.75079346 C7.09238098 17.41259613 6.43332764 18.0743988 5.75430298 18.7562561 C5.03213593 19.4712326 4.30996887 20.18620911 3.56591797 20.92285156 C2.80484741 21.68421417 2.04377686 22.44557678 1.25964355 23.23001099 C-1.25708856 25.74534979 -3.78083084 28.25353036 -6.3046875 30.76171875 C-8.05104372 32.50434486 -9.7969589 34.24741306 -11.54244995 35.99090576 C-16.13791196 40.57873123 -20.73934849 45.16051892 -25.34204102 49.74108887 C-30.03762964 54.41621961 -34.72756122 59.09701543 -39.41796875 63.77734375 C-48.62206677 72.95999147 -57.83229368 82.13646645 -67.046875 91.30859375 C-78.32356735 80.1218474 -78.32356735 80.1218474 -78.734375 72.18359375 C-78.41558234 66.95212439 -76.54034395 64.13477403 -73.046875 60.30859375 C-72.386875 60.30859375 -71.726875 60.30859375 -71.046875 60.30859375 C-70.6437207 59.41865723 -70.6437207 59.41865723 -70.23242188 58.51074219 C-69.04396768 56.30319342 -67.83945111 54.84316493 -66.078125 53.07421875 C-65.50707031 52.50058594 -64.93601562 51.92695312 -64.34765625 51.3359375 C-63.45626953 50.45615234 -63.45626953 50.45615234 -62.546875 49.55859375 C-61.95261719 48.95660156 -61.35835937 48.35460937 -60.74609375 47.734375 C-60.17503906 47.16589844 -59.60398437 46.59742188 -59.015625 46.01171875 C-58.49419922 45.49254883 -57.97277344 44.97337891 -57.43554688 44.43847656 C-56.046875 43.30859375 -56.046875 43.30859375 -54.046875 43.30859375 C-54.046875 42.64859375 -54.046875 41.98859375 -54.046875 41.30859375 C-53.386875 41.30859375 -52.726875 41.30859375 -52.046875 41.30859375 C-51.84320313 40.76847656 -51.63953125 40.22835937 -51.4296875 39.671875 C-49.15257626 35.78020184 -45.57858013 32.9537668 -42.21484375 29.99414062 C-39.08212685 27.04726286 -38.10433076 26.01795143 -37.7421875 21.546875 C-37.84273437 20.47824219 -37.94328125 19.40960938 -38.046875 18.30859375 C-37.716875 17.64859375 -37.386875 16.98859375 -37.046875 16.30859375 C-36.386875 16.30859375 -35.726875 16.30859375 -35.046875 16.30859375 C-35.046875 15.64859375 -35.046875 14.98859375 -35.046875 14.30859375 C-30.046875 13.30859375 -30.046875 13.30859375 -27.546875 13.05859375 C-24.11162626 12.02801913 -22.47910479 9.87229542 -20.046875 7.30859375 C-19.386875 7.30859375 -18.726875 7.30859375 -18.046875 7.30859375 C-18.046875 6.64859375 -18.046875 5.98859375 -18.046875 5.30859375 C-17.386875 5.30859375 -16.726875 5.30859375 -16.046875 5.30859375 C-15.716875 4.31859375 -15.386875 3.32859375 -15.046875 2.30859375 C-10.49329328 -1.41706402 -5.44930767 -1.84070125 0 0 Z " fill="#D74852" transform="translate(88.046875,34.69140625)"/>
<path d="M0 0 C6.53223504 3.32774238 11.07082659 8.96723017 15.66796875 14.546875 C16.9579691 16.12779183 16.9579691 16.12779183 19 17 C19 17.66 19 18.32 19 19 C19.54277588 19.2168042 20.08555176 19.4336084 20.64477539 19.65698242 C23.80608497 21.4596531 26.1575722 23.91118366 28.68359375 26.48828125 C29.22097672 27.02849411 29.75835968 27.56870697 30.31202698 28.12528992 C32.02528546 29.84970706 33.73146776 31.58093629 35.4375 33.3125 C36.58091562 34.46595552 37.72479125 35.61895523 38.86914062 36.77148438 C40.98260721 38.90123713 43.09331074 41.03364835 45.20092773 43.16918945 C48.77686859 46.78567739 52.36110345 50.39226682 56.0078125 53.9375 C57.04692091 54.9582866 58.08598295 55.97912041 59.125 57 C59.64964844 57.50789063 60.17429687 58.01578125 60.71484375 58.5390625 C64.79978199 62.57229266 68.36710094 66.46086606 68.8125 72.4375 C68.68322202 80.20593136 62.65219381 86.23460267 58 92 C52.90524015 87.73017723 48.1153623 83.26861059 43.41235352 78.57348633 C42.3281739 77.49675407 42.3281739 77.49675407 41.22209167 76.39826965 C38.85493808 74.04561032 36.49159663 71.6891723 34.12890625 69.33203125 C32.47981326 67.68869463 30.83071962 66.04535867 29.18162537 64.40202332 C25.73772498 60.96859261 22.2961298 57.53286828 18.85571289 54.09594727 C14.43818655 49.68393607 10.01143921 45.28129771 5.58252048 40.88072681 C2.17958776 37.49636175 -1.21667294 34.10536195 -4.61110115 30.7124691 C-6.24137733 29.08522685 -7.87416276 27.46049462 -9.50945854 25.83829689 C-11.78610171 23.57861123 -14.05320004 21.30976209 -16.31811523 19.03833008 C-16.99907257 18.36658752 -17.68002991 17.69484497 -18.38162231 17.00274658 C-18.99415359 16.38464615 -19.60668488 15.76654572 -20.23777771 15.12971497 C-20.77438743 14.59457181 -21.31099714 14.05942865 -21.86386776 13.50806904 C-23 12 -23 12 -23 9 C-16.45405967 3.05940525 -9.21037286 -2.41144308 0 0 Z " fill="#D64852" transform="translate(257,34)"/>
<path d="M0 0 C9.48387028 5.70639652 18.2150314 12.28726992 27 19 C24.91397187 21.08602813 23.63770776 21.63503807 20.9375 22.6875 C11.43481598 26.82166936 4.37649385 34.3578474 -2.77734375 41.65234375 C-3.66990372 42.55247696 -4.56246368 43.45261017 -5.48207092 44.38002014 C-8.30548267 47.22768324 -11.12243906 50.08158884 -13.9375 52.9375 C-17.66978335 56.72343079 -21.40917103 60.50217065 -25.15234375 64.27734375 C-26.01061264 65.15220932 -26.86888153 66.02707489 -27.75315857 66.92845154 C-28.54480911 67.72670853 -29.33645966 68.52496552 -30.15209961 69.34741211 C-30.84887314 70.05465927 -31.54564667 70.76190643 -32.26353455 71.49058533 C-34 73 -34 73 -36 73 C-36 73.66 -36 74.32 -36 75 C-36.66 75 -37.32 75 -38 75 C-38.07476562 74.05640625 -38.14953125 73.1128125 -38.2265625 72.140625 C-39.27818178 61.87187201 -41.39263875 52.53923562 -49 45 C-49 44.34 -49 43.68 -49 43 C-49.57234375 42.73058594 -50.1446875 42.46117187 -50.734375 42.18359375 C-53.06000393 40.96865312 -55.10853807 39.57615924 -57.25 38.0625 C-65.34698928 32.66450714 -72.3072218 31.46848428 -82 31 C-80.4109604 26.82506986 -77.3213524 24.32153981 -74.0625 21.4375 C-67.83351274 15.81696617 -61.8791402 9.9851768 -56 4 C-54.20496657 6.69255014 -53.60747293 8.17300532 -52.8125 11.1875 C-50.6642 17.78278099 -46.39539491 22.83946067 -40.5 26.5 C-33.4264678 29.60848583 -23.68772393 29.24321091 -16.4375 26.8125 C-8.64802169 22.70532053 -4.9992403 18.05071234 -1.8125 10 C-0.91356589 6.68085869 -0.40941011 3.41175089 0 0 Z " fill="#DDDADD" transform="translate(195,167)"/>
<path d="M0 0 C2.13629863 1.65596734 4.1831866 3.34639347 6.171875 5.17578125 C4.69466078 8.62779764 2.73393499 10.82540061 0.046875 13.42578125 C-0.67757812 14.1321875 -1.40203125 14.83859375 -2.1484375 15.56640625 C-2.70273437 16.0975 -3.25703125 16.62859375 -3.828125 17.17578125 C-6.29248789 16.00872567 -8.13405348 14.92476301 -10.265625 13.17578125 C-14.99151256 9.48728364 -18.84085637 8.64120369 -24.828125 9.17578125 C-27.82968251 10.04224208 -27.82968251 10.04224208 -29.828125 12.17578125 C-30.91286118 15.54435627 -30.91286118 15.54435627 -29.828125 19.17578125 C-26.15930565 23.27026472 -21.05450899 25.6292062 -16.265625 28.17578125 C-9.09830285 31.9930513 -4.00218638 35.49510794 -0.828125 43.17578125 C0.06513863 50.1126574 0.23228426 57.37789134 -3.50390625 63.5 C-8.30754877 69.57894585 -14.2376512 73.44656189 -22.01611328 74.46118164 C-24.27481589 74.57648256 -26.50446206 74.59271712 -28.765625 74.55078125 C-29.95357666 74.5355542 -29.95357666 74.5355542 -31.16552734 74.52001953 C-40.76047573 74.26497145 -47.71202979 71.78902605 -54.828125 65.17578125 C-56.148125 63.52578125 -57.468125 61.87578125 -58.828125 60.17578125 C-55.528125 56.54578125 -52.228125 52.91578125 -48.828125 49.17578125 C-47.796875 50.08328125 -46.765625 50.99078125 -45.703125 51.92578125 C-39.64668977 57.04952546 -34.99749055 60.5014232 -26.828125 60.17578125 C-23.77568553 59.63577799 -22.5167506 58.96819832 -19.828125 57.17578125 C-18.32652052 53.83129837 -18.32652052 53.83129837 -18.828125 50.17578125 C-23.13878606 44.99282532 -28.79837663 41.88415844 -34.50195312 38.45703125 C-40.42429088 34.77202109 -45.00413064 30.66516176 -48.265625 24.42578125 C-49.45757658 17.53894989 -48.96427564 11.33754347 -45.265625 5.30078125 C-40.84472832 -0.59726468 -35.16362802 -4.09461815 -27.94140625 -5.5390625 C-18.12872175 -6.86314008 -8.45331298 -5.45262039 0 0 Z " fill="#000000" transform="translate(770.828125,58.82421875)"/>
<path d="M0 0 C1.245568 1.06443513 2.48166445 2.14075592 3.6875 3.25 C2.21028578 6.70201639 0.24955999 8.89961936 -2.4375 11.5 C-3.16195312 12.20640625 -3.88640625 12.9128125 -4.6328125 13.640625 C-5.18710937 14.17171875 -5.74140625 14.7028125 -6.3125 15.25 C-8.77686289 14.08294442 -10.61842848 12.99898176 -12.75 11.25 C-17.50646142 7.53763986 -21.29702674 6.81251104 -27.3125 7.25 C-29.73468117 7.62631112 -29.73468117 7.62631112 -31.3125 9.25 C-32.57256315 12.56809464 -32.57256315 12.56809464 -32.3125 16.25 C-28.66694121 20.70961561 -24.44917415 22.98819743 -19.4375 25.5625 C-12.38455353 29.34568356 -5.96447433 33.294077 -3.3125 41.25 C-2.69813368 49.1763327 -2.18260987 56.75819213 -7.3125 63.25 C-12.5454517 69.03936681 -18.84863774 72.21244185 -26.6796875 72.68359375 C-28.18211052 72.70696112 -29.68503216 72.70778187 -31.1875 72.6875 C-32.37158447 72.67614014 -32.37158447 72.67614014 -33.57958984 72.66455078 C-44.49086165 72.35703294 -52.64581144 67.91668856 -60.3125 60.25 C-60.05579274 56.37454844 -57.80190667 54.25443895 -55.25 51.5 C-54.51652344 50.70078125 -53.78304687 49.9015625 -53.02734375 49.078125 C-52.46144531 48.47484375 -51.89554688 47.8715625 -51.3125 47.25 C-50.88839844 47.63671875 -50.46429687 48.0234375 -50.02734375 48.421875 C-43.54670211 54.17611505 -37.387144 58.72761284 -28.3125 58.25 C-24.48672681 56.75647636 -24.48672681 56.75647636 -21.3125 54.25 C-20.81080585 51.41926564 -20.81080585 51.41926564 -21.3125 48.25 C-25.66829224 43.08442252 -31.26784327 39.96733523 -36.98632812 36.53125 C-42.72869787 32.95821994 -47.68553273 29.05013068 -50.40625 22.6953125 C-51.7098875 15.24953678 -51.32779292 8.99815465 -47.1875 2.5 C-35.80418478 -11.84563994 -13.44082249 -10.43515825 0 0 Z " fill="#000000" transform="translate(837.3125,60.75)"/>
<path d="M0 0 C2.80969467 1.28022875 4.8539238 2.60714129 7.02441406 4.79736328 C7.58469299 5.35779327 8.14497192 5.91822327 8.722229 6.49563599 C9.31404968 7.09777924 9.90587036 7.69992249 10.515625 8.3203125 C11.13145447 8.93897186 11.74728394 9.55763123 12.3817749 10.19503784 C14.34260336 12.16703814 16.29635301 14.14588737 18.25 16.125 C19.58026799 17.46530164 20.910992 18.80515083 22.2421875 20.14453125 C25.5001015 23.42446589 28.75168533 26.71055942 32 30 C30.36129404 34.15992154 27.32845828 36.95998456 24.22094727 40.05371094 C23.63050629 40.64926285 23.04006531 41.24481476 22.43173218 41.8584137 C20.4817665 43.82226196 18.52447676 45.7786099 16.56640625 47.734375 C15.2085952 49.09607248 13.85100853 50.45799371 12.49363708 51.82012939 C9.64979413 54.67143079 6.80211009 57.5188291 3.9519043 60.36376953 C0.29359514 64.01627153 -3.35319642 67.68003881 -6.99699306 71.34701157 C-9.79611516 74.16083463 -12.60210042 76.96773315 -15.4101429 79.77265167 C-16.75813885 81.12116224 -18.10376186 82.47204906 -19.44698906 83.82530975 C-21.32145285 85.71205571 -23.20513757 87.58908112 -25.09155273 89.46386719 C-25.64801987 90.02797806 -26.204487 90.59208893 -26.77781677 91.17329407 C-30.65741458 95 -30.65741458 95 -34 95 C-34 94.34 -34 93.68 -34 93 C-34.66 93 -35.32 93 -36 93 C-37.41015625 91.53125 -37.41015625 91.53125 -39.0625 89.5 C-42.47703362 85.45154453 -46.22340388 82.06152129 -50.27734375 78.6640625 C-50.84582031 78.11492187 -51.41429687 77.56578125 -52 77 C-52 76.34 -52 75.68 -52 75 C-52.99 74.67 -53.98 74.34 -55 74 C-56.28726685 72.51964312 -57.57151986 71.03511402 -58.79296875 69.5 C-60.0937903 67.88344506 -61.4941665 66.42657911 -63 65 C-61.55746343 61.63408134 -59.66735273 59.48952921 -57 57 C-53.13171688 58.51968265 -51.56157817 60.79802729 -49 64 C-46.43238789 66.45950213 -43.7506192 68.74848509 -41 71 C-40.195625 71.66 -39.39125 72.32 -38.5625 73 C-34.57710074 74.55527776 -31.09062795 74.06586785 -27 73 C-22.93991433 70.85922755 -20.70266703 69.24118878 -19 65 C-18.6498677 62.81162777 -18.6498677 62.81162777 -18.6875 60.5625 C-18.67074219 59.82128906 -18.65398437 59.08007812 -18.63671875 58.31640625 C-19.7060377 51.49806071 -25.79660107 47.14633025 -30.61328125 42.72851562 C-31.18949219 42.17744141 -31.76570313 41.62636719 -32.359375 41.05859375 C-33.15553223 40.32080688 -33.15553223 40.32080688 -33.96777344 39.56811523 C-35 38 -35 38 -34.74438477 35.91748047 C-33.87955661 33.68974667 -32.85718661 32.39100305 -31.1875 30.6875 C-30.68605469 30.15511719 -30.18460938 29.62273437 -29.66796875 29.07421875 C-28 28 -28 28 -25.97265625 28.13671875 C-23.66525851 29.14649083 -22.76938686 30.13192194 -21.25 32.125 C-14.89515805 40.07021937 -14.89515805 40.07021937 -6.08203125 44.23828125 C-0.14691818 44.43237273 3.18711421 43.53599773 8 40 C10.95224433 35.37215754 10.94215667 30.28491005 10 25 C8.15621283 21.78489613 5.70790134 19.50186537 3 17 C1.3515606 15.33591086 -0.29426851 13.66923198 -1.9375 12 C-3.28916504 10.66413071 -4.64242826 9.3298662 -6 8 C-4.44805246 4.67240077 -2.69378051 2.51419515 0 0 Z " fill="#C5C5C5" transform="translate(114,75)"/>
<path d="M0 0 C3.32759923 1.55194754 5.48580485 3.30621949 8 6 C6.68692751 8.91346593 5.28818412 10.9450979 2.99609375 13.1640625 C2.42052734 13.72867188 1.84496094 14.29328125 1.25195312 14.875 C0.65318359 15.4525 0.05441406 16.03 -0.5625 16.625 C-1.75349384 17.78160151 -2.94240005 18.94035778 -4.12890625 20.1015625 C-4.65556885 20.61025879 -5.18223145 21.11895508 -5.72485352 21.64306641 C-8.86793795 24.98774634 -8.32507043 28.87982282 -8.28515625 33.23046875 C-7.89011412 37.06724783 -6.59508601 39.18865682 -4 42 C0.23329737 44.55946222 4.17378604 44.66042928 9 44 C15.86132314 40.56933843 22.58449908 34.27982354 27 28 C30.22540929 28.58324395 31.9757611 29.52214798 34.3125 31.8125 C35.11107422 32.56466797 35.11107422 32.56466797 35.92578125 33.33203125 C37 35 37 35 36.74658203 36.91088867 C35.89557974 39.29219234 34.95624952 40.36508383 33.12890625 42.09375 C32.55462891 42.64933594 31.98035156 43.20492187 31.38867188 43.77734375 C30.78603516 44.34582031 30.18339844 44.91429687 29.5625 45.5 C28.37168294 46.6305712 27.1853161 47.76585214 26.00390625 48.90625 C25.47611572 49.40447266 24.9483252 49.90269531 24.40454102 50.41601562 C21.01089804 54.24322849 20.55712189 57.79563168 20.6875 62.75 C21.18592997 66.33869577 22.5968583 68.34389601 25 71 C29.39843883 74.17096753 32.77754173 74.30092233 37.94921875 73.52734375 C40.48158294 72.87616439 42.08666192 71.76027103 44 70 C44.66 70 45.32 70 46 70 C46.226875 69.443125 46.45375 68.88625 46.6875 68.3125 C48.37550036 65.33840412 50.46676517 63.27991135 53 61 C53.66 61 54.32 61 55 61 C55 60.34 55 59.68 55 59 C55.66 59 56.32 59 57 59 C57 58.34 57 57.68 57 57 C60.36591866 58.44253657 62.51047079 60.33264727 65 63 C63.59957012 66.17386941 61.94785382 68.28860814 59.48046875 70.71484375 C58.78759766 71.40126953 58.09472656 72.08769531 57.38085938 72.79492188 C56.65705078 73.50197266 55.93324219 74.20902344 55.1875 74.9375 C54.11918945 75.99227539 54.11918945 75.99227539 53.02929688 77.06835938 C50.50803328 79.55697015 47.9804151 82.039048 45.45043945 84.51879883 C43.40265865 86.54168489 41.58543306 88.53301463 39.8125 90.8125 C39.214375 91.534375 38.61625 92.25625 38 93 C37.34 93 36.68 93 36 93 C36 93.66 36 94.32 36 95 C31.41535159 94.13133864 29.02583083 91.42690868 25.85449219 88.19506836 C25.24918671 87.59020096 24.64388123 86.98533356 24.02023315 86.36213684 C22.02192053 84.36173476 20.0344427 82.35091749 18.046875 80.33984375 C16.66319161 78.95056499 15.27884424 77.56194725 13.89385986 76.17396545 C10.2507386 72.51939089 6.61671615 68.85589668 2.98449707 65.19049072 C-0.72364608 61.45165739 -4.4402983 57.72130418 -8.15625 53.99023438 C-15.44586704 46.66844458 -22.72590271 39.33720638 -30 32 C-28.71977125 29.19030533 -27.39285871 27.1460762 -25.20263672 24.97558594 C-24.64220673 24.41530701 -24.08177673 23.85502808 -23.50436401 23.277771 C-22.90222076 22.68595032 -22.30007751 22.09412964 -21.6796875 21.484375 C-21.06102814 20.86854553 -20.44236877 20.25271606 -19.80496216 19.6182251 C-17.83296186 17.65739664 -15.85411263 15.70364699 -13.875 13.75 C-12.53469836 12.41973201 -11.19484917 11.089008 -9.85546875 9.7578125 C-6.57553411 6.4998985 -3.28944058 3.24831467 0 0 Z " fill="#C5C5C5" transform="translate(219,75)"/>
<path d="M0 0 C7.2414586 4.07953927 12.29867707 10.04847199 14.93359375 17.94140625 C16.0542568 26.28149865 14.85778158 33.06657397 9.93359375 39.94140625 C5.02251678 45.38674264 -0.39569646 49.41807742 -7.85546875 50.25390625 C-16.73087113 50.61341622 -23.27164356 48.77323455 -29.87890625 42.75390625 C-35.84736468 36.20248212 -37.77783048 29.61652251 -37.453125 20.8046875 C-36.5276941 13.95275969 -32.74411574 8.84186381 -28.06640625 3.94140625 C-20.06279547 -1.98126573 -9.49805382 -3.27894597 0 0 Z " fill="#7C7C7C" transform="translate(240.06640625,198.05859375)"/>
<path d="M0 0 C-1.02862785 5.44567686 -2.24614784 10.11817117 -5 15 C-5.99 14.7525 -5.99 14.7525 -7 14.5 C-13.53074325 13.41154279 -18.3802298 13.25348653 -24 17 C-31.01531844 23.85217149 -32.35588347 32.65073306 -33.60546875 42.06640625 C-33.73440018 42.98590561 -33.8633316 43.90540497 -33.99617004 44.85276794 C-34.40126761 47.75497118 -34.79457614 50.65862623 -35.1875 53.5625 C-35.46210888 55.54503031 -35.73749229 57.52745351 -36.01367188 59.50976562 C-36.686183 64.33851667 -37.34268583 69.16905995 -38 74 C-43.94 74 -49.88 74 -56 74 C-55.36665427 64.82448373 -54.41055876 55.75489556 -53.1875 46.640625 C-53.01177337 45.31641104 -52.83624009 43.99217141 -52.66088867 42.66790771 C-52.29680106 39.9247677 -51.93010743 37.18199247 -51.56152344 34.43945312 C-51.08873337 30.91956503 -50.62317357 27.39876201 -50.15953064 23.87765884 C-49.71454251 20.50644131 -49.26322443 17.13608043 -48.8125 13.765625 C-48.64580811 12.49914124 -48.47911621 11.23265747 -48.30737305 9.92779541 C-48.15051025 8.76858582 -47.99364746 7.60937622 -47.83203125 6.41503906 C-47.69514893 5.39057678 -47.5582666 4.3661145 -47.41723633 3.31060791 C-47 1 -47 1 -46 0 C-43.30345146 -0.07319621 -40.63308542 -0.09242537 -37.9375 -0.0625 C-37.17888672 -0.05798828 -36.42027344 -0.05347656 -35.63867188 -0.04882812 C-33.75908129 -0.0370068 -31.87953101 -0.01907078 -30 0 C-29.67 1.98 -29.34 3.96 -29 6 C-28.59910156 5.60167969 -28.19820312 5.20335937 -27.78515625 4.79296875 C-19.73469818 -2.70983911 -10.06076755 -5.49385733 0 0 Z " fill="#000000" transform="translate(684,247)"/>
<path d="M0 0 C3.04530742 1.36348855 5.16099379 2.90554901 7.52485657 5.2507019 C8.54497078 6.25585342 8.54497078 6.25585342 9.58569336 7.28131104 C10.32094238 8.01589539 11.05619141 8.75047974 11.8137207 9.50732422 C12.59619675 10.28147675 13.37867279 11.05562927 14.18486023 11.85324097 C16.77065349 14.41492892 19.34871367 16.9842234 21.92578125 19.5546875 C23.7160014 21.335945 25.50630092 23.11712274 27.29667664 24.89822388 C31.04698107 28.63203657 34.79288206 32.3702051 38.53637695 36.11083984 C42.86675147 40.43757191 47.21010441 44.75097259 51.55950862 49.05856693 C55.74254954 53.2027974 59.91181989 57.36069164 64.07607079 61.52380753 C65.8506864 63.29420327 67.62944408 65.06045678 69.41231728 66.82253647 C71.8978761 69.28139088 74.36731132 71.75538007 76.83325195 74.23388672 C77.57862213 74.96442261 78.32399231 75.6949585 79.09194946 76.44763184 C79.75792648 77.1233725 80.4239035 77.79911316 81.11006165 78.49533081 C81.69573567 79.07899351 82.2814097 79.66265621 82.88483143 80.26400566 C84 82 84 82 83.8095274 84.04716682 C82.67826863 86.77611665 80.916098 88.77485394 79 91 C75.9042446 89.62175583 73.79313711 88.04096882 71.40594482 85.64645386 C70.71048553 84.9537439 70.01502625 84.26103394 69.29849243 83.54733276 C68.54611298 82.78776276 67.79373352 82.02819275 67.01855469 81.24560547 C66.2181778 80.44552063 65.4178009 79.64543579 64.59317017 78.82110596 C61.94797053 76.17451263 59.30992615 73.52090472 56.671875 70.8671875 C54.83956781 69.03115034 53.00681866 67.19555414 51.17364502 65.36038208 C46.84224566 61.02212581 42.51532896 56.67944496 38.19055104 52.33458912 C33.26584851 47.38752156 28.3354567 42.44614083 23.40458059 37.5052278 C13.2633811 27.34313072 3.12934016 17.17391755 -7 7 C-5.66667905 3.00003714 -3.5042173 2.16217663 0 0 Z " fill="#D34751" transform="translate(224,51)"/>
<path d="M0 0 C3.44094186 1.31246538 6.13540882 2.66588867 9 5 C7.62175583 8.0957554 6.04096882 10.20686289 3.64645386 12.59405518 C2.9537439 13.28951447 2.26103394 13.98497375 1.54733276 14.70150757 C0.78776276 15.45388702 0.02819275 16.20626648 -0.75439453 16.98144531 C-1.55447937 17.7818222 -2.35456421 18.5821991 -3.17889404 19.40682983 C-5.82548737 22.05202947 -8.47909528 24.69007385 -11.1328125 27.328125 C-12.96884966 29.16043219 -14.80444586 30.99318134 -16.63961792 32.82635498 C-20.97787419 37.15775434 -25.32055504 41.48467104 -29.66541088 45.80944896 C-34.61247844 50.73415149 -39.55385917 55.6645433 -44.4947722 60.59541941 C-54.65686928 70.7366189 -64.82608245 80.87065984 -75 91 C-78.295419 89.45804411 -80.18650837 88.24519555 -82 85 C-81.59016807 81.53648927 -80.23556244 79.86352737 -77.80467224 77.44390869 C-77.1217511 76.75686356 -76.43882996 76.06981842 -75.73521423 75.36195374 C-74.60449242 74.24741066 -74.60449242 74.24741066 -73.45092773 73.11035156 C-72.66074249 72.31972824 -71.87055725 71.52910492 -71.056427 70.71452332 C-68.4391964 68.09938504 -65.81149491 65.49503685 -63.18359375 62.890625 C-61.36833053 61.08095612 -59.55372792 59.27062437 -57.73976135 57.45965576 C-53.44933575 53.17951967 -49.15229778 48.90613327 -44.85199076 44.63593364 C-39.95618523 39.77366304 -35.06889802 34.90286864 -30.18230903 30.03133821 C-20.13099156 20.01137636 -10.06901963 10.00217061 0 0 Z " fill="#D34751" transform="translate(109,51)"/>
<path d="M0 0 C4.82066801 3.25114819 7.8404642 6.27949363 9.6875 11.8125 C10.57809947 17.54145234 10.52949383 22.40200078 7.125 27.25 C2.95048439 31.99997454 -1.26102679 34.9401719 -7.75 35.375 C-13.7160366 35.07009183 -17.66137676 32.28988458 -21.921875 28.30859375 C-25.59780206 24.02345406 -25.96266366 19.98980811 -25.65234375 14.45703125 C-25.0375991 9.67332866 -24.01979758 6.43335214 -20.4609375 3.0546875 C-13.86767435 -1.95432867 -7.77350123 -2.78672686 0 0 Z " fill="#7E7E7E" transform="translate(175.3125,152.1875)"/>
<path d="M0 0 C7.91844334 3.48272891 11.76620924 10.86207439 15.0546875 18.484375 C18.49302889 27.63434134 18.75295859 41.80525146 15 51 C13.72126315 53.09744033 12.3594283 55.11861695 10.9765625 57.1484375 C9.48380193 59.97871154 10.10244142 62.03115239 11 65 C11 68 11 68 9.6875 69.38671875 C8.125 70.59114583 6.5625 71.79557292 5 73 C4.34 72.67 3.68 72.34 3 72 C-1.98270168 71.54313337 -4.99915283 72.66621484 -9.375 75 C-10.43460937 75.556875 -11.49421875 76.11375 -12.5859375 76.6875 C-13.38257813 77.120625 -14.17921875 77.55375 -15 78 C-16.46099313 73.61702062 -16.05302674 70.15630239 -14 66 C-11.65126068 64.21894491 -9.2193857 62.95128992 -6.609375 61.5859375 C0.12692133 57.49172147 3.97742458 50.44869163 6 43 C6.41118159 40.00630361 6.47836529 37.08138305 6.4375 34.0625 C6.42920166 33.27053223 6.42090332 32.47856445 6.41235352 31.66259766 C6.13521424 22.08995058 3.09067553 16.50979841 -3.70703125 9.82421875 C-5 8 -5 8 -4.828125 5.91015625 C-3.72076046 3.35590503 -2.04747212 1.84932966 0 0 Z " fill="#C3C3C3" transform="translate(278,159)"/>
<path d="M0 0 C2.84383123 1.2748209 5.13754018 2.45137078 7 5 C6.6875 7.1875 6.6875 7.1875 6 9 C5.34 9 4.68 9 4 9 C3.7525 9.515625 3.505 10.03125 3.25 10.5625 C1.92772182 13.14094245 0.47956967 15.6300995 -1 18.12109375 C-5.392623 26.37442056 -5.41134794 36.8052812 -3.34765625 45.86328125 C-2.41679629 48.11252656 -1.36727811 49.98739889 0 52 C0.50917969 52.77730469 1.01835938 53.55460937 1.54296875 54.35546875 C6.39901439 61.16726733 12.08829899 65.28035278 20 68 C19.34 70.97 18.68 73.94 18 77 C11.2914659 76.71453046 7.27916944 73.98516343 2 70 C1.36707031 69.54496094 0.73414063 69.08992188 0.08203125 68.62109375 C-7.91337469 62.42597789 -13.40735085 51.92982121 -15 42 C-15.99984183 28.28788348 -14.45010518 16.619573 -5.42578125 5.58984375 C-3.6850374 3.64879513 -1.91638649 1.76897214 0 0 Z " fill="#C2C2C2" transform="translate(55,159)"/>
<path d="M0 0 C1 2 1 2 1.125 4.9375 C2.08246148 12.40883879 7.88810958 18.88810958 13 24 C6.07 30.93 -0.86 37.86 -8 45 C-19.28160112 33.71839888 -19.28160112 33.71839888 -19.6875 25.875 C-19.36870734 20.64353064 -17.49346895 17.82618028 -14 14 C-13.34 14 -12.68 14 -12 14 C-11.66355469 13.17242187 -11.66355469 13.17242187 -11.3203125 12.328125 C-9.59614817 9.28788256 -7.37484178 7.18574327 -4.875 4.75 C-3.96492188 3.85796875 -3.05484375 2.9659375 -2.1171875 2.046875 C-1.41851563 1.37140625 -0.71984375 0.6959375 0 0 Z " fill="#BE232F" transform="translate(29,81)"/>
<path d="M0 0 C6.53223504 3.32774238 11.07082659 8.96723017 15.66796875 14.546875 C16.9579691 16.12779183 16.9579691 16.12779183 19 17 C19 17.66 19 18.32 19 19 C19.66 19.33 20.32 19.66 21 20 C19.700625 20.04125 18.40125 20.0825 17.0625 20.125 C8.84859803 21.02904581 3.09009691 26.87700003 -3 32 C-5.85786389 29.21624295 -8.70581784 26.42276402 -11.54492188 23.61987305 C-12.51229259 22.66759721 -13.48233757 21.71803016 -14.45507812 20.77124023 C-15.85204345 19.41062452 -17.238683 18.03943236 -18.625 16.66796875 C-19.46289062 15.84578857 -20.30078125 15.0236084 -21.1640625 14.17651367 C-23 12 -23 12 -23 9 C-16.45405967 3.05940525 -9.21037286 -2.41144308 0 0 Z " fill="#BF232F" transform="translate(257,34)"/>
<path d="M0 0 C4.86265764 2.29871089 7.56145711 5.21670433 10 10 C10.85918545 15.79950179 9.41954128 20.33606944 6 25 C2.53525679 28.20443867 -0.95926344 29.24341778 -5.625 29.4375 C-9.50812632 29.23312493 -11.97913202 28.58931541 -15 26 C-19.02801889 20.62930814 -20.57165137 16.74548621 -20 10 C-15.2490132 1.02591382 -9.85623168 -1.42045692 0 0 Z " fill="#040404" transform="translate(234,208)"/>
<path d="M0 0 C3.75317323 1.59709499 6.31940288 3.93646044 9 7 C10.54555576 11.63666727 11.16284976 16.48129637 9.05859375 21.0390625 C6.61642987 24.63723499 4.13111886 27.4393551 0 29 C-5.07665938 29.68143079 -8.8290494 29.5961203 -13.4375 27.25 C-16.77658829 24.3181176 -18.74908985 22.48795554 -19.50390625 18.01171875 C-19.68156303 7.93265726 -19.68156303 7.93265726 -16.125 3.75 C-11.34515972 -0.9143852 -6.42369333 -0.52134323 0 0 Z " fill="#050505" transform="translate(120,225)"/>
<path d="M0 0 C3.32759923 1.55194754 5.48580485 3.30621949 8 6 C6.62369361 9.74862399 4.16912232 11.83996385 1.3034668 14.46630859 C-6.08921064 21.26500619 -6.08921064 21.26500619 -8.48828125 30.77734375 C-9.35615038 34.54694326 -12.13468002 36.29010068 -15.125 38.52734375 C-17.25216879 40.04055051 -17.25216879 40.04055051 -19 43 C-22.63 39.37 -26.26 35.74 -30 32 C-28.4011444 28.80228881 -27.58401307 27.33550845 -25.20263672 24.97558594 C-24.64220673 24.41530701 -24.08177673 23.85502808 -23.50436401 23.277771 C-22.90222076 22.68595032 -22.30007751 22.09412964 -21.6796875 21.484375 C-21.06102814 20.86854553 -20.44236877 20.25271606 -19.80496216 19.6182251 C-17.83296186 17.65739664 -15.85411263 15.70364699 -13.875 13.75 C-12.53469836 12.41973201 -11.19484917 11.089008 -9.85546875 9.7578125 C-6.57553411 6.4998985 -3.28944058 3.24831467 0 0 Z " fill="#A5A5A5" transform="translate(219,75)"/>
<path d="M0 0 C3.86828312 1.51968265 5.43842183 3.79802729 8 7 C15.50761547 14.52054991 15.50761547 14.52054991 25.3125 17.1875 C27.1378125 17.0946875 27.1378125 17.0946875 29 17 C29.04125 17.721875 29.0825 18.44375 29.125 19.1875 C30.38352165 23.23274817 32.63589117 24.49481257 36 27 C28.66997167 35.69830028 28.66997167 35.69830028 26 38 C25.01 38 24.02 38 23 38 C23 37.34 23 36.68 23 36 C22.34 36 21.68 36 21 36 C19.58984375 34.53125 19.58984375 34.53125 17.9375 32.5 C14.52296638 28.45154453 10.77659612 25.06152129 6.72265625 21.6640625 C6.15417969 21.11492187 5.58570313 20.56578125 5 20 C5 19.34 5 18.68 5 18 C4.01 17.67 3.02 17.34 2 17 C0.71273315 15.51964312 -0.57151986 14.03511402 -1.79296875 12.5 C-3.0937903 10.88344506 -4.4941665 9.42657911 -6 8 C-4.55746343 4.63408134 -2.66735273 2.48952921 0 0 Z " fill="#A5A5A5" transform="translate(57,132)"/>
<path d="M0 0 C0.21914062 0.97839844 0.43828125 1.95679688 0.6640625 2.96484375 C2.58646479 11.06912924 4.82137365 17.32355557 10 24 C10.495 24.99 10.495 24.99 11 26 C-1.54 26 -14.08 26 -27 26 C-20.31238447 18.19778189 -20.31238447 18.19778189 -16.25 14.6875 C-11.60765836 10.60167579 -7.25139677 6.29667345 -2.93359375 1.87109375 C-1 0 -1 0 0 0 Z " fill="#DCD9DC" transform="translate(193,222)"/>
<path d="M0 0 C3.3 0 6.6 0 10 0 C10.07401964 5.80238024 10.12853989 11.60448722 10.16479492 17.40722656 C10.17990462 19.38221013 10.20039328 21.35716004 10.22631836 23.33203125 C10.26260619 26.16675106 10.27970416 29.00102826 10.29296875 31.8359375 C10.30845261 32.72243988 10.32393646 33.60894226 10.33988953 34.52230835 C10.34022942 35.753358 10.34022942 35.753358 10.34057617 37.00927734 C10.34723801 37.73319672 10.35389984 38.45711609 10.36076355 39.20297241 C10 41 10 41 7 43 C3.67759676 42.6758631 2.39223697 42.39223697 0 40 C-0.17546482 36.98691049 -0.23127445 34.06689546 -0.1953125 31.0546875 C-0.1924826 30.1696756 -0.18965271 29.2846637 -0.18673706 28.37283325 C-0.1755224 25.54008588 -0.1504157 22.70765216 -0.125 19.875 C-0.11497185 17.95703581 -0.10584572 16.03906667 -0.09765625 14.12109375 C-0.07557889 9.41394124 -0.04104045 4.70702384 0 0 Z " fill="#BCBCBC" transform="translate(214,258)"/>
<path d="M0 0 C3.3 0 6.6 0 10 0 C10.07410727 5.64165361 10.12858167 11.28302447 10.16479492 16.92504883 C10.1798898 18.84469538 10.20036773 20.7643074 10.22631836 22.68383789 C10.26267109 25.44165564 10.27971912 28.1990178 10.29296875 30.95703125 C10.30845261 31.81649857 10.32393646 32.67596588 10.33988953 33.56147766 C10.34022942 34.76238289 10.34022942 34.76238289 10.34057617 35.98754883 C10.34723801 36.6914827 10.35389984 37.39541656 10.36076355 38.12068176 C9.88664159 40.59051565 8.96400426 41.47485894 7 43 C4.4375 43.375 4.4375 43.375 2 43 C-0.029668 39.955498 -0.24856301 39.39723672 -0.22705078 35.98754883 C-0.22689972 35.18694534 -0.22674866 34.38634186 -0.22659302 33.56147766 C-0.21627045 32.70201035 -0.20594788 31.84254303 -0.1953125 30.95703125 C-0.1924826 30.0734343 -0.18965271 29.18983734 -0.18673706 28.27946472 C-0.17554097 25.45700546 -0.15043751 22.63486338 -0.125 19.8125 C-0.11496946 17.89909312 -0.10584374 15.98568127 -0.09765625 14.07226562 C-0.07560351 9.38138818 -0.04107762 4.69074787 0 0 Z " fill="#C0C0C0" transform="translate(180,258)"/>
<path d="M0 0 C0.07411371 5.49923749 0.12858464 10.99818479 0.16479492 16.49780273 C0.17988873 18.36894799 0.20036589 20.24005783 0.22631836 22.11108398 C0.26267593 24.79940526 0.27972015 27.48725913 0.29296875 30.17578125 C0.30845261 31.01337479 0.32393646 31.85096832 0.33988953 32.71394348 C0.34158631 38.55912724 0.34158631 38.55912724 -1.36112976 40.75675964 C-3 42 -3 42 -5.5625 41.8125 C-8 41 -8 41 -10 39 C-10.54016149 34.8551965 -10.58476971 30.7031573 -10.64526367 26.52612305 C-10.67317886 25.14569301 -10.72069579 23.76550531 -10.78881836 22.38647461 C-11.34971934 10.98880213 -11.34971934 10.98880213 -7.98291016 6.02783203 C-2.02592434 0 -2.02592434 0 0 0 Z " fill="#C1C1C1" transform="translate(155,259)"/>
<path d="M0 0 C2.38882821 2.96544192 4.71436149 5.95248199 7 9 C0.4 15.6 -6.2 22.2 -13 29 C-18.06122449 26.46938776 -18.06122449 26.46938776 -20 23 C-19.65711467 19.03614087 -17.50301419 17.15527219 -14.74609375 14.453125 C-13.89208984 13.60878906 -13.03808594 12.76445313 -12.15820312 11.89453125 C-11.26037109 11.02183594 -10.36253906 10.14914063 -9.4375 9.25 C-8.53580078 8.36183594 -7.63410156 7.47367187 -6.70507812 6.55859375 C-4.47662902 4.36551685 -2.24148407 2.17973956 0 0 Z " fill="#BC222E" transform="translate(47,113)"/>
<path d="M0 0 C3.46629835 1.48653506 5.69022036 3.45722351 8.328125 6.1328125 C9.12734375 6.93847656 9.9265625 7.74414062 10.75 8.57421875 C11.575 9.41597656 12.4 10.25773437 13.25 11.125 C14.09046875 11.97449219 14.9309375 12.82398438 15.796875 13.69921875 C17.86915683 15.79504923 19.93662393 17.89540713 22 20 C19.31158141 22.25245881 17.35358125 23.88213958 14 25 C13.67 25.66 13.34 26.32 13 27 C6.4 20.4 -0.2 13.8 -7 7 C-5.66667905 3.00003714 -3.5042173 2.16217663 0 0 Z " fill="#BC222E" transform="translate(224,51)"/>
<path d="M0 0 C2.8605891 1.35937085 4.85927699 2.64520469 7 5 C5.39073607 8.93895414 2.69442092 11.70755657 -0.25 14.6875 C-0.94802734 15.43483398 -0.94802734 15.43483398 -1.66015625 16.19726562 C-4.91452816 19.5009462 -7.3282817 20.92741681 -12 21 C-14 19 -14 19 -14.4375 16.6875 C-13.82455066 12.92223979 -11.71326396 11.43450396 -9 9 C-7.38911299 7.40258195 -5.78535361 5.79795498 -4.1875 4.1875 C-2.09375 2.09375 -2.09375 2.09375 0 0 Z " fill="#7A7A7A" transform="translate(263,119)"/>
<path d="M0 0 C3.06713244 1.36242426 5.11840293 2.89699705 7.4375 5.3125 C9.55512087 7.51683379 11.65279534 9.58334903 13.9375 11.625 C16 14 16 14 16.4375 16.6875 C16 19 16 19 14 21 C11.625 21.35546875 11.625 21.35546875 9 21 C6.9375 19.42578125 6.9375 19.42578125 5 17.3125 C4.319375 16.58160156 3.63875 15.85070312 2.9375 15.09765625 C2.298125 14.40542969 1.65875 13.71320313 1 13 C0.00438255 12.0785752 -0.99480053 11.16096202 -2 10.25 C-4 8 -4 8 -4 4 C-2 1.75 -2 1.75 0 0 Z " fill="#7A7A7A" transform="translate(70,119)"/>
<path d="M0 0 C1.98 1.65 3.96 3.3 6 5 C5.13815869 9.55150359 2.49038606 12.06066897 -0.6875 15.25 C-1.20505859 15.80429688 -1.72261719 16.35859375 -2.25585938 16.9296875 C-4.99197179 19.69646618 -6.31985132 20.89923723 -10.26953125 21.484375 C-13 21 -13 21 -15 19 C-15.08752735 16.14248943 -14.39729151 14.48634676 -12.59716797 12.28271484 C-10.75726621 10.36306185 -8.86604375 8.51801415 -6.9375 6.6875 C-6.27427734 6.04232422 -5.61105469 5.39714844 -4.92773438 4.73242188 C-3.29382329 3.14552982 -1.65131853 1.56873672 0 0 Z " fill="#7A7A7A" transform="translate(234,89)"/>
<path d="M0 0 C1.64207591 1.40260651 3.2818281 2.80801896 4.91015625 4.2265625 C6.32389208 5.42625608 7.77111737 6.58739028 9.24609375 7.7109375 C14.87613825 12.14673013 14.87613825 12.14673013 15.5625 16.875 C15 20 15 20 14 21 C10.27519405 21.41386733 8.61874073 21.48847952 5.625 19.125 C4 17 4 17 4 15 C3.443125 14.773125 2.88625 14.54625 2.3125 14.3125 C-0.71572375 12.59377841 -2.77323664 10.67211603 -5 8 C-5.09328009 4.92175717 -4.0196554 4.02144226 -1.9375 1.75 C-1.298125 1.1725 -0.65875 0.595 0 0 Z " fill="#7B7B7B" transform="translate(100,89)"/>
<path d="M0 0 C1.98 0 3.96 0 6 0 C6 10.89 6 21.78 6 33 C4.02 33 2.04 33 0 33 C0 22.11 0 11.22 0 0 Z " fill="#959595" transform="translate(199,258)"/>
<path d="M0 0 C2.97 0 5.94 0 9 0 C9.05379226 2.95857409 9.09357093 5.91617721 9.125 8.875 C9.14175781 9.71675781 9.15851563 10.55851562 9.17578125 11.42578125 C9.18222656 12.23144531 9.18867187 13.03710938 9.1953125 13.8671875 C9.20578613 14.61081543 9.21625977 15.35444336 9.22705078 16.12060547 C9 18 9 18 7 20 C4.5 20.25 4.5 20.25 2 20 C0 18 0 18 -0.22705078 16.12060547 C-0.21657715 15.37697754 -0.20610352 14.63334961 -0.1953125 13.8671875 C-0.18886719 13.06152344 -0.18242188 12.25585938 -0.17578125 11.42578125 C-0.15064453 10.16314453 -0.15064453 10.16314453 -0.125 8.875 C-0.11597656 8.02550781 -0.10695313 7.17601562 -0.09765625 6.30078125 C-0.07405647 4.20040116 -0.03818483 2.10016556 0 0 Z " fill="#C4C4C4" transform="translate(111,281)"/>
<path d="M0 0 C1.16982422 0.02255859 2.33964844 0.04511719 3.54492188 0.06835938 C6.42708769 0.12717909 9.30663681 0.20932859 12.1875 0.3125 C12.1875 0.6425 12.1875 0.9725 12.1875 1.3125 C11.64048431 1.17063263 11.09346863 1.02876526 10.52987671 0.88259888 C2.28262107 -0.87179717 -6.45173945 -1.05929381 -13.79478455 3.55931091 C-25.00916402 11.85550521 -34.44410105 22.65664372 -43.93896484 32.8013916 C-47.69730876 36.78968414 -51.52596555 40.70926542 -55.34765625 44.63671875 C-60.90385933 50.36691274 -66.43395524 56.12012381 -71.90771484 61.92919922 C-72.47996796 62.53399109 -73.05222107 63.13878296 -73.64181519 63.76190186 C-75.92375119 66.19474631 -77.95776725 68.53040088 -79.8125 71.3125 C-79.8125 68.10365161 -79.46801254 65.99838995 -77.2109375 63.63671875 C-75.82518443 62.4730072 -74.42593394 61.32523376 -73.015625 60.19140625 C-70.06933718 57.67870334 -67.70026362 54.8098289 -65.2578125 51.81640625 C-64.78085938 51.32011719 -64.30390625 50.82382813 -63.8125 50.3125 C-63.1525 50.3125 -62.4925 50.3125 -61.8125 50.3125 C-61.55855469 49.71953125 -61.30460937 49.1265625 -61.04296875 48.515625 C-59.67623626 46.06852301 -58.29507018 44.81902046 -56.125 43.0625 C-52.40829975 39.94155498 -49.32225926 36.57213519 -46.2578125 32.81640625 C-45.78085938 32.32011719 -45.30390625 31.82382813 -44.8125 31.3125 C-44.1525 31.3125 -43.4925 31.3125 -42.8125 31.3125 C-42.8125 30.6525 -42.8125 29.9925 -42.8125 29.3125 C-41.30859375 27.8671875 -41.30859375 27.8671875 -39.25 26.1875 C-35.49493387 23.01937138 -32.35984343 19.61819764 -29.2578125 15.81640625 C-28.54238281 15.07197266 -28.54238281 15.07197266 -27.8125 14.3125 C-27.1525 14.3125 -26.4925 14.3125 -25.8125 14.3125 C-25.8125 13.6525 -25.8125 12.9925 -25.8125 12.3125 C-24.23828125 10.76171875 -24.23828125 10.76171875 -22.125 9 C-19.66717047 6.94023703 -17.74111127 5.21419886 -15.84375 2.6015625 C-10.9795085 -1.07169204 -5.90863007 -0.2151602 0 0 Z " fill="#D2CFD2" transform="translate(167.8125,110.6875)"/>
<path d="M0 0 C1.65 0 3.3 0 5 0 C5 10.89 5 21.78 5 33 C3.35 33 1.7 33 0 33 C0 22.11 0 11.22 0 0 Z " fill="#A9A9A9" transform="translate(165,258)"/>
<path d="M0 0 C0.33 1.32 0.66 2.64 1 4 C0.34 4 -0.32 4 -1 4 C-1.185625 5.7634375 -1.185625 5.7634375 -1.375 7.5625 C-1.66330238 10.30137265 -2.19185696 12.61379527 -3.01953125 15.26171875 C-4.10219324 19.38963719 -4.34527249 23.00981842 -4.3125 27.25 C-4.30831055 27.99362793 -4.30412109 28.73725586 -4.29980469 29.50341797 C-4.14120079 37.29356903 -2.78264818 44.25091519 1.25 51 C1.8275 51.99 2.405 52.98 3 54 C2.67 54.99 2.34 55.98 2 57 C-5.94841049 44.21566339 -9.67159159 33.21114307 -8 18 C-6.27046689 11.45582067 -3.5662186 5.73104925 0 0 Z " fill="#A8A8A8" transform="translate(48,166)"/>
<path d="M0 0 C0 4.95 0 9.9 0 15 C-1.98 15 -3.96 15 -6 15 C-6 10.71 -6 6.42 -6 2 C-2 0 -2 0 0 0 Z " fill="#9A9A9A" transform="translate(136,276)"/>
<path d="M0 0 C2.4375 0.8125 2.4375 0.8125 4.4375 2.8125 C4.6875 5.3125 4.6875 5.3125 4.4375 7.8125 C2.4375 9.8125 2.4375 9.8125 -0.5625 10.0625 C-3.5625 9.8125 -3.5625 9.8125 -5.5625 7.8125 C-5.93046448 4.94237704 -5.93759409 3.40475382 -4.375 0.9375 C-2.5625 -0.1875 -2.5625 -0.1875 0 0 Z " fill="#CECBCE" transform="translate(229.5625,217.1875)"/>
<path d="M0 0 C3.29714793 0.32971479 4.6226839 0.6226839 7 3 C7.3125 5.5 7.3125 5.5 7 8 C3.79191085 10.1387261 2.72301503 10.47730962 -1 10 C-3 7 -3 7 -2.75 4.4375 C-2 2 -2 2 0 0 Z " fill="#D1CED1" transform="translate(113,234)"/>
<path d="M0 0 C0.33 1.32 0.66 2.64 1 4 C0.34 4 -0.32 4 -1 4 C-1.185625 5.7634375 -1.185625 5.7634375 -1.375 7.5625 C-1.86435935 11.54120426 -2.8055205 15.17766559 -4 19 C-4.66 19 -5.32 19 -6 19 C-6.66 19.99 -7.32 20.98 -8 22 C-7.83432041 13.71602066 -3.83270427 7.12502726 0 0 Z " fill="#9B9B9B" transform="translate(48,166)"/>
<path d="M0 0 C0.33 0 0.66 0 1 0 C1.17015625 0.71285156 1.3403125 1.42570313 1.515625 2.16015625 C2.67664822 6.74866824 3.74226976 10.95106055 6.25 15 C6.8275 15.99 7.405 16.98 8 18 C7.67 18.99 7.34 19.98 7 21 C-0.01852959 9.71129707 -0.01852959 9.71129707 -2 4 C-1 1 -1 1 0 0 Z " fill="#9D9D9D" transform="translate(43,202)"/>
<path d="M0 0 C0.66 0 1.32 0 2 0 C1.67 0.99 1.34 1.98 1 3 C0.77820215 4.89212737 0.59385985 6.78884472 0.4375 8.6875 C0.35371094 9.68136719 0.26992187 10.67523438 0.18359375 11.69921875 C0.12300781 12.45847656 0.06242188 13.21773438 0 14 C-0.33 14 -0.66 14 -1 14 C-1.02685938 11.85423363 -1.04633088 9.70837355 -1.0625 7.5625 C-1.07410156 6.36753906 -1.08570313 5.17257812 -1.09765625 3.94140625 C-1 1 -1 1 0 0 Z " fill="#777777" transform="translate(131,277)"/>
</svg>
